HIERARCHY
ROOT hips
{
	OFFSET 0.000000 104.274902 0.000000
	CHANNELS 6 Xposition Yposition Zposition Xrotation Yrotation Zrotation
	JOINT spine
	{
		OFFSET 0.000000 10.181549 0.131524
		CHANNELS 6 Xposition Yposition Zposition Xrotation Yrotation Zrotation
		JOINT chest
		{
			OFFSET 0.000000 9.893990 -1.470706
			CHANNELS 3 Xrotation Yrotation Zrotation
			JOINT upperChest
			{
				OFFSET 0.000000 9.220787 -1.370637
				CHANNELS 3 Xrotation Yrotation Zrotation
				JOINT neck
				{
					OFFSET 0.000000 16.740372 -2.049022
					CHANNELS 6 Xposition Yposition Zposition Xrotation Yrotation Zrotation
					JOINT head
					{
						OFFSET 0.000000 9.617859 1.684976
						CHANNELS 6 Xposition Yposition Zposition Xrotation Yrotation Zrotation
						JOINT headEnd
						{
							OFFSET 0.000000 22.037384 7.501072
							CHANNELS 6 Xposition Yposition Zposition Xrotation Yrotation Zrotation
							End Site
							{
								OFFSET 0.000000 23.106567 -2.828246
							}
						}
					}
				}
				JOINT rightShoulder
				{
					OFFSET -4.570000 11.014877 -2.160840
					CHANNELS 6 Xposition Yposition Zposition Xrotation Yrotation Zrotation
					JOINT rightUpperArm
					{
						OFFSET -10.592867 -0.524796 -2.232105
						CHANNELS 3 Xrotation Yrotation Zrotation
						JOINT rightLowerArm
						{
							OFFSET -27.841497 0.000000 -0.000002
							CHANNELS 3 Xrotation Yrotation Zrotation
							JOINT rightHand
							{
								OFFSET -28.328812 0.000000 -0.000001
								CHANNELS 3 Xrotation Yrotation Zrotation
								JOINT rightThumbProximal
								{
									OFFSET -2.464798 -1.573990 2.681911
									CHANNELS 6 Xposition Yposition Zposition Xrotation Yrotation Zrotation
									JOINT rightThumbIntermediate
									{
										OFFSET -3.244781 -1.873383 1.873376
										CHANNELS 3 Xrotation Yrotation Zrotation
										JOINT rightThumbDistal
										{
											OFFSET -2.646263 -1.527817 1.527818
											CHANNELS 6 Xposition Yposition Zposition Xrotation Yrotation Zrotation
											JOINT rightHandThumb4
											{
												OFFSET -1.994591 -1.151581 1.151575
												CHANNELS 6 Xposition Yposition Zposition Xrotation Yrotation Zrotation
												End Site
												{
													OFFSET -1.860176 -1.142715 1.365483
												}
											}
										}
									}
								}
								JOINT rightIndexProximal
								{
									OFFSET -9.108299 -0.517883 2.259803
									CHANNELS 6 Xposition Yposition Zposition Xrotation Yrotation Zrotation
									JOINT rightIndexIntermediate
									{
										OFFSET -3.699997 0.000000 0.000000
										CHANNELS 3 Xrotation Yrotation Zrotation
										JOINT rightIndexDistal
										{
											OFFSET -2.850006 0.000000 0.000000
											CHANNELS 3 Xrotation Yrotation Zrotation
											JOINT rightHandIndex4
											{
												OFFSET -2.772194 0.000000 0.000000
												CHANNELS 3 Xrotation Yrotation Zrotation
												End Site
												{
													OFFSET -2.772202 0.000000 -0.000484
												}
											}
										}
									}
								}
								JOINT rightMiddleProximal
								{
									OFFSET -9.532501 0.000000 -0.000000
									CHANNELS 6 Xposition Yposition Zposition Xrotation Yrotation Zrotation
									JOINT rightMiddleIntermediate
									{
										OFFSET -3.699997 0.000000 0.000000
										CHANNELS 3 Xrotation Yrotation Zrotation
										JOINT rightMiddleDistal
										{
											OFFSET -2.949997 0.000000 0.000000
											CHANNELS 3 Xrotation Yrotation Zrotation
											JOINT rightHandMiddle4
											{
												OFFSET -2.946594 0.000000 0.000000
												CHANNELS 3 Xrotation Yrotation Zrotation
												End Site
												{
													OFFSET -2.946602 0.000000 -0.000982
												}
											}
										}
									}
								}
								JOINT rightRingProximal
								{
									OFFSET -9.103600 -0.043106 -1.865100
									CHANNELS 6 Xposition Yposition Zposition Xrotation Yrotation Zrotation
									JOINT rightRingIntermediate
									{
										OFFSET -3.379303 0.000000 0.000000
										CHANNELS 3 Xrotation Yrotation Zrotation
										JOINT rightRingDistal
										{
											OFFSET -2.889694 0.000000 0.000000
											CHANNELS 3 Xrotation Yrotation Zrotation
											JOINT rightHandRing4
											{
												OFFSET -2.638802 0.000000 0.000000
												CHANNELS 3 Xrotation Yrotation Zrotation
												End Site
												{
													OFFSET -2.638802 0.000000 0.004218
												}
											}
										}
									}
								}
								JOINT rightLittleProximal
								{
									OFFSET -8.076698 -0.486725 -3.806299
									CHANNELS 6 Xposition Yposition Zposition Xrotation Yrotation Zrotation
									JOINT rightLittleIntermediate
									{
										OFFSET -3.600006 0.000000 0.000000
										CHANNELS 3 Xrotation Yrotation Zrotation
										JOINT rightLittleDistal
										{
											OFFSET -2.099998 0.000000 0.000000
											CHANNELS 3 Xrotation Yrotation Zrotation
											JOINT rightHandPinky4
											{
												OFFSET -2.115791 0.000000 0.000000
												CHANNELS 3 Xrotation Yrotation Zrotation
												End Site
												{
													OFFSET -2.115799 0.000000 0.000174
												}
											}
										}
									}
								}
							}
						}
					}
				}
				JOINT leftShoulder
				{
					OFFSET 4.570400 11.014679 -2.160816
					CHANNELS 6 Xposition Yposition Zposition Xrotation Yrotation Zrotation
					JOINT leftUpperArm
					{
						OFFSET 10.592373 -0.524597 -2.232116
						CHANNELS 3 Xrotation Yrotation Zrotation
						JOINT leftLowerArm
						{
							OFFSET 27.841488 0.000000 0.000001
							CHANNELS 3 Xrotation Yrotation Zrotation
							JOINT leftHand
							{
								OFFSET 28.328808 0.000000 -0.000000
								CHANNELS 3 Xrotation Yrotation Zrotation
								JOINT leftThumbProximal
								{
									OFFSET 2.466103 -1.576202 2.681698
									CHANNELS 6 Xposition Yposition Zposition Xrotation Yrotation Zrotation
									JOINT leftThumbIntermediate
									{
										OFFSET 3.243317 -1.872528 1.872530
										CHANNELS 3 Xrotation Yrotation Zrotation
										JOINT leftThumbDistal
										{
											OFFSET 2.647881 -1.528763 1.528754
											CHANNELS 6 Xposition Yposition Zposition Xrotation Yrotation Zrotation
											JOINT leftHandThumb4
											{
												OFFSET 1.998924 -1.154083 1.154080
												CHANNELS 6 Xposition Yposition Zposition Xrotation Yrotation Zrotation
												End Site
												{
													OFFSET 1.884041 -1.149155 1.337651
												}
											}
										}
									}
								}
								JOINT leftIndexProximal
								{
									OFFSET 9.109299 -0.518005 2.259900
									CHANNELS 6 Xposition Yposition Zposition Xrotation Yrotation Zrotation
									JOINT leftIndexIntermediate
									{
										OFFSET 3.699997 0.000000 0.000000
										CHANNELS 3 Xrotation Yrotation Zrotation
										JOINT leftIndexDistal
										{
											OFFSET 2.850006 0.000000 0.000000
											CHANNELS 3 Xrotation Yrotation Zrotation
											JOINT leftHandIndex4
											{
												OFFSET 2.774895 0.000000 0.000000
												CHANNELS 3 Xrotation Yrotation Zrotation
												End Site
												{
													OFFSET 2.774902 0.000000 -0.000072
												}
											}
										}
									}
								}
								JOINT leftMiddleProximal
								{
									OFFSET 9.533401 0.000000 0.000000
									CHANNELS 6 Xposition Yposition Zposition Xrotation Yrotation Zrotation
									JOINT leftMiddleIntermediate
									{
										OFFSET 3.699997 0.000000 0.000000
										CHANNELS 3 Xrotation Yrotation Zrotation
										JOINT leftMiddleDistal
										{
											OFFSET 2.949997 0.000000 0.000000
											CHANNELS 3 Xrotation Yrotation Zrotation
											JOINT leftHandMiddle4
											{
												OFFSET 2.952896 0.000000 0.000000
												CHANNELS 3 Xrotation Yrotation Zrotation
												End Site
												{
													OFFSET 2.952904 0.000000 0.000165
												}
											}
										}
									}
								}
								JOINT leftRingProximal
								{
									OFFSET 9.104500 -0.042999 -1.865101
									CHANNELS 6 Xposition Yposition Zposition Xrotation Yrotation Zrotation
									JOINT leftRingIntermediate
									{
										OFFSET 3.149994 0.000000 0.000000
										CHANNELS 3 Xrotation Yrotation Zrotation
										JOINT leftRingDistal
										{
											OFFSET 2.950005 0.000000 0.000000
											CHANNELS 3 Xrotation Yrotation Zrotation
											JOINT leftHandRing4
											{
												OFFSET 2.644302 0.000000 0.000000
												CHANNELS 3 Xrotation Yrotation Zrotation
												End Site
												{
													OFFSET 2.644302 0.000000 0.000083
												}
											}
										}
									}
								}
								JOINT leftLittleProximal
								{
									OFFSET 8.077805 -0.486893 -3.806302
									CHANNELS 6 Xposition Yposition Zposition Xrotation Yrotation Zrotation
									JOINT leftLittleIntermediate
									{
										OFFSET 3.600006 0.000000 0.000000
										CHANNELS 3 Xrotation Yrotation Zrotation
										JOINT leftLittleDistal
										{
											OFFSET 2.099998 0.000000 0.000000
											CHANNELS 3 Xrotation Yrotation Zrotation
											JOINT leftHandPinky4
											{
												OFFSET 2.125496 0.000000 0.000000
												CHANNELS 3 Xrotation Yrotation Zrotation
												End Site
												{
													OFFSET 2.125504 0.000000 -0.001254
												}
											}
										}
									}
								}
							}
						}
					}
				}
			}
		}
	}
	JOINT rightUpperLeg
	{
		OFFSET -8.207800 -6.751701 -1.599544
		CHANNELS 6 Xposition Yposition Zposition Xrotation Yrotation Zrotation
		JOINT rightLowerLeg
		{
			OFFSET 0.000004 -44.370152 0.345934
			CHANNELS 3 Xrotation Yrotation Zrotation
			JOINT rightFoot
			{
				OFFSET 0.000004 -44.423664 -3.043535
				CHANNELS 3 Xrotation Yrotation Zrotation
				JOINT rightToes
				{
					OFFSET 0.000001 -8.728691 10.710592
					CHANNELS 3 Xrotation Yrotation Zrotation
					JOINT rightToesEnd
					{
						OFFSET 0.000000 -0.000665 9.278101
						CHANNELS 3 Xrotation Yrotation Zrotation
						End Site
						{
							OFFSET 0.000000 -0.000665 9.278103
						}
					}
				}
			}
		}
	}
	JOINT leftUpperLeg
	{
		OFFSET 8.207800 -6.751701 -1.599544
		CHANNELS 6 Xposition Yposition Zposition Xrotation Yrotation Zrotation
		JOINT leftLowerLeg
		{
			OFFSET 0.000004 -44.370037 0.346940
			CHANNELS 3 Xrotation Yrotation Zrotation
			JOINT leftFoot
			{
				OFFSET 0.000004 -44.423611 -3.044388
				CHANNELS 3 Xrotation Yrotation Zrotation
				JOINT leftToes
				{
					OFFSET 0.000001 -8.728690 10.710592
					CHANNELS 3 Xrotation Yrotation Zrotation
					JOINT leftToesEnd
					{
						OFFSET 0.000000 -0.000680 9.278101
						CHANNELS 3 Xrotation Yrotation Zrotation
						End Site
						{
							OFFSET 0.000000 -0.000680 9.278101
						}
					}
				}
			}
		}
	}
}
MOTION
Frames: 4
Frame Time: 0.033333
0.994426 101.018951 2.610407 -3.881708 -0.815538 -5.999381 0.000000 10.181549 0.131524 1.492273 -0.246026 2.065285 2.983797 -0.394164 2.758131 2.983800 -0.394165 2.758131 -0.000001 16.740360 -2.049018 1.892193 -0.618052 -1.616230 0.000000 9.617845 1.684976 6.774155 -4.208681 -0.027974 -0.000000 22.037369 7.501076 -0.000001 -0.000000 0.000000 -4.570001 11.014855 -2.160838 -0.323259 13.326183 20.788844 -44.742414 26.639818 54.017951 0.214801 149.660728 -0.110498 2.531152 -17.419195 -28.234006 -2.464779 -1.573990 2.681908 3.816584 15.315697 -14.857234 -9.236419 -28.173806 -13.260554 -2.646277 -1.527807 1.527818 -28.675832 32.446752 20.888843 -1.994578 -1.151569 1.151586 0.000003 -0.000003 -0.000002 -9.108289 -0.517875 2.259805 2.416288 -8.534459 -6.319314 3.392856 -5.677808 69.352723 -0.179655 0.574057 6.917830 -0.000000 -0.000000 -0.000000 -9.532471 0.000006 0.000004 0.426031 -9.144659 3.779071 4.547392 -6.052202 84.026032 -1.760478 2.589195 22.181007 0.000001 0.000000 0.000001 -9.103587 -0.043102 -1.865099 0.282329 -5.615673 4.933992 7.048577 -4.648518 105.388637 -2.661567 2.760950 32.819489 -0.000000 0.000000 -0.000001 -8.076677 -0.486725 -3.806295 -7.786317 -6.487041 1.108006 6.193082 -5.411106 106.834438 -2.348909 1.864877 23.698369 -0.000002 0.000000 0.000002 4.570400 11.014672 -2.160813 1.732253 -16.730393 -4.978297 12.930306 3.476013 -75.133379 -0.231864 -46.117116 -0.167145 -21.065036 5.170025 6.401324 2.466094 -1.576199 2.681686 18.115320 -1.052098 10.947898 1.280023 33.046197 -3.331412 2.647882 -1.528740 1.528751 -6.288584 -15.782675 -3.751361 1.998904 -1.154082 1.154073 -0.000000 -0.000001 0.000005 9.109285 -0.518018 2.259901 0.492908 5.364814 -15.299716 0.628697 3.253092 -27.981449 0.161544 1.380779 -17.579775 0.000000 -0.000001 -0.000001 9.533405 -0.000005 -0.000003 1.306091 9.181338 -23.373148 1.199534 4.211884 -40.472190 0.375980 2.030059 -20.088406 -0.000001 -0.000000 -0.000001 9.104497 -0.042989 -1.865108 3.132173 11.620031 -33.905445 2.134026 4.039481 -48.249242 0.842722 2.253007 -26.852298 0.000001 -0.000001 -0.000001 8.077793 -0.486884 -3.806300 5.465972 16.536783 -44.555878 1.666913 4.154946 -53.030378 0.771178 3.257137 -27.991483 -0.000000 -0.000000 0.000002 -8.207798 -6.751698 -1.599544 0.281547 -3.415709 11.148189 17.163128 -4.248198 3.009236 -13.947280 0.854635 -7.119245 0.879738 0.000000 -0.000003 0.000000 0.000000 0.000000 8.207800 -6.751698 -1.599543 -18.308102 12.193360 17.311540 27.440789 8.292801 3.259327 -5.068548 4.966695 -10.619289 -0.631399 -0.000003 0.000001 -0.000000 0.000002 0.000000 
1.056779 101.010040 2.590004 -3.934376 -0.656112 -6.001750 0.000001 10.181568 0.131522 1.491003 -0.261636 2.077382 2.981289 -0.424618 2.780300 2.981286 -0.424619 2.780300 0.000001 16.740362 -2.049019 1.989281 -0.607802 -1.651719 -0.000000 9.617841 1.684973 6.886773 -3.951609 -0.357779 0.000000 22.037384 7.501077 0.000000 0.000000 -0.000000 -4.570004 11.014882 -2.160840 -0.308595 13.103864 20.885586 -44.649787 26.735604 54.063338 0.214447 149.665851 -0.110343 2.042256 -17.435040 -28.089187 -2.464807 -1.573995 2.681908 3.814963 15.314737 -14.861959 -9.236548 -28.169894 -13.259808 -2.646260 -1.527815 1.527818 -28.679148 32.444334 20.889927 -1.994598 -1.151572 1.151583 0.000003 -0.000004 0.000003 -9.108314 -0.517878 2.259802 2.419778 -8.537250 -6.319205 3.392869 -5.677799 69.352764 -0.179658 0.574053 6.917803 -0.000001 0.000001 0.000000 -9.532501 0.000004 -0.000003 0.426345 -9.150473 3.778650 4.547402 -6.052195 84.025998 -1.760611 2.588859 22.183730 0.000002 0.000000 0.000000 -9.103595 -0.043105 -1.865104 0.282228 -5.613469 4.934138 7.048587 -4.648514 105.388692 -2.661567 2.760946 32.819500 -0.000000 -0.000000 0.000005 -8.076700 -0.486715 -3.806303 -7.786332 -6.487016 1.108010 6.193085 -5.411110 106.834411 -2.348909 1.864869 23.698371 -0.000000 -0.000000 -0.000000 4.570397 11.014670 -2.160814 1.686969 -16.647565 -5.108439 13.092397 3.459417 -74.774643 -0.230586 -46.233766 -0.166539 -20.591535 5.233182 6.573036 2.466095 -1.576203 2.681703 18.115417 -1.053523 10.946992 1.282499 33.046624 -3.332874 2.647894 -1.528733 1.528756 -6.292047 -15.783483 -3.750819 1.998909 -1.154095 1.154077 -0.000001 0.000003 0.000003 9.109295 -0.518014 2.259902 0.489814 5.364428 -15.299472 0.628697 3.253082 -27.981277 0.161533 1.380773 -17.579771 0.000001 -0.000000 0.000003 9.533381 0.000015 0.000006 1.306291 9.181845 -23.373169 1.199536 4.211874 -40.472170 0.375981 2.030068 -20.088397 -0.000000 0.000000 -0.000000 9.104509 -0.042993 -1.865097 3.132680 11.620849 -33.905455 2.134030 4.039488 -48.249307 0.842725 2.253008 -26.852281 -0.000001 0.000001 -0.000001 8.077811 -0.486884 -3.806297 5.469937 16.534430 -44.556326 1.666928 4.154951 -53.030402 0.771182 3.257133 -27.991671 -0.000000 -0.000000 0.000003 -8.207796 -6.751706 -1.599545 0.273910 -3.416970 11.175095 17.272106 -4.444364 2.944405 -14.069194 0.849003 -7.061383 1.087530 -0.000003 0.000001 -0.000000 -0.000001 0.000000 8.207800 -6.751695 -1.599544 -18.348198 12.208988 17.316454 27.538783 8.115747 3.224753 -5.091711 4.964542 -10.563413 -0.633045 0.000003 0.000000 -0.000000 -0.000000 0.000000 
1.116336 101.021339 2.594028 -3.957224 -0.566993 -5.989937 0.000000 10.181535 0.131524 1.485406 -0.271257 2.073953 2.970097 -0.443721 2.774429 2.970094 -0.443722 2.774429 -0.000000 16.740372 -2.049021 2.021570 -0.594080 -1.679902 -0.000000 9.617856 1.684976 6.931255 -3.665552 -0.540073 -0.000000 22.037399 7.501067 -0.000000 0.000000 0.000000 -4.569997 11.014866 -2.160841 -0.296646 12.961035 20.923265 -44.476805 26.825691 54.045730 0.214530 149.672162 -0.110301 1.669928 -17.280160 -28.111800 -2.464810 -1.574000 2.681909 3.813384 15.313764 -14.866704 -9.236726 -28.166035 -13.259047 -2.646270 -1.527814 1.527816 -28.682410 32.441937 20.891004 -1.994594 -1.151585 1.151579 -0.000002 -0.000003 0.000001 -9.108308 -0.517871 2.259806 2.423253 -8.540064 -6.319099 3.392861 -5.677797 69.352737 -0.179668 0.574068 6.917793 -0.000001 -0.000001 0.000000 -9.532495 0.000013 0.000003 0.426673 -9.156284 3.778201 4.547395 -6.052201 84.025950 -1.760734 2.588535 22.186478 -0.000001 -0.000000 0.000001 -9.103612 -0.043102 -1.865102 0.282119 -5.611254 4.934296 7.048593 -4.648516 105.388726 -2.661567 2.760942 32.819503 -0.000000 0.000000 0.000002 -8.076705 -0.486714 -3.806298 -7.786349 -6.486991 1.108006 6.193073 -5.411109 106.834445 -2.348908 1.864872 23.698376 0.000001 0.000001 0.000002 4.570401 11.014672 -2.160817 1.656949 -16.612905 -5.176262 13.315151 3.670866 -74.592496 -0.228083 -46.324911 -0.164960 -20.178935 5.267461 6.677156 2.466094 -1.576214 2.681700 18.115562 -1.054918 10.946137 1.284992 33.046955 -3.334264 2.647885 -1.528739 1.528754 -6.295602 -15.784263 -3.750389 1.998921 -1.154091 1.154068 -0.000001 0.000002 0.000001 9.109294 -0.518014 2.259897 0.486211 5.363850 -15.299173 0.628670 3.253066 -27.981075 0.161554 1.380772 -17.579773 0.000003 -0.000002 0.000001 9.533405 -0.000007 -0.000003 1.306470 9.182211 -23.373233 1.199524 4.211862 -40.472043 0.375986 2.030072 -20.088421 0.000001 0.000001 0.000001 9.104485 -0.042993 -1.865102 3.133061 11.621452 -33.905424 2.134025 4.039490 -48.249310 0.842737 2.253020 -26.852305 0.000001 0.000002 0.000001 8.077820 -0.486887 -3.806301 5.474886 16.532521 -44.556958 1.666910 4.154939 -53.030405 0.771192 3.257156 -27.991879 0.000000 0.000001 -0.000003 -8.207798 -6.751722 -1.599544 0.282100 -3.386034 11.183048 17.272080 -4.591675 2.863885 -14.072047 0.825679 -6.931247 1.144983 -0.000001 0.000000 0.000000 -0.000000 -0.000000 8.207801 -6.751720 -1.599544 -18.320604 12.217293 17.276771 27.531560 8.032344 3.199255 -5.117729 4.963206 -10.514284 -0.635113 -0.000002 -0.000000 0.000000 0.000001 0.000000 
1.169984 101.030533 2.625770 -3.928488 -0.552170 -5.975096 0.000002 10.181530 0.131524 1.470955 -0.273704 2.057976 2.941138 -0.449224 2.743498 2.941140 -0.449224 2.743496 -0.000001 16.740370 -2.049022 2.013439 -0.588961 -1.692614 -0.000000 9.617848 1.684975 6.877078 -3.581206 -0.785127 -0.000000 22.037369 7.501073 0.000000 -0.000000 0.000000 -4.570002 11.014861 -2.160842 -0.277136 12.788145 20.909690 -44.523244 26.819708 54.103595 0.213017 149.679265 -0.109528 1.404909 -17.139381 -27.986589 -2.464766 -1.574003 2.681906 3.811788 15.312801 -14.871410 -9.236862 -28.162163 -13.258306 -2.646276 -1.527811 1.527817 -28.685678 32.439543 20.892048 -1.994594 -1.151582 1.151594 0.000001 -0.000002 0.000001 -9.108292 -0.517876 2.259803 2.426690 -8.542863 -6.318977 3.392859 -5.677803 69.352723 -0.179663 0.574072 6.917772 0.000001 0.000000 -0.000001 -9.532492 0.000004 -0.000002 0.426986 -9.162062 3.777785 4.547375 -6.052203 84.025902 -1.760861 2.588185 22.189249 0.000000 0.000000 0.000000 -9.103566 -0.043108 -1.865100 0.282009 -5.609027 4.934442 7.048602 -4.648520 105.388808 -2.661568 2.760931 32.819489 -0.000002 0.000001 -0.000001 -8.076680 -0.486734 -3.806297 -7.786382 -6.486966 1.108016 6.193079 -5.411106 106.834465 -2.348907 1.864876 23.698385 0.000000 0.000001 0.000003 4.570400 11.014672 -2.160817 1.629359 -16.560878 -5.213601 13.585719 3.945156 -74.509024 -0.222021 -46.403947 -0.160808 -19.868882 5.203321 6.901549 2.466094 -1.576203 2.681694 18.115728 -1.056301 10.945320 1.287489 33.047177 -3.335656 2.647889 -1.528741 1.528748 -6.299215 -15.785018 -3.750007 1.998917 -1.154073 1.154075 -0.000001 -0.000001 -0.000000 9.109294 -0.518018 2.259901 0.481561 5.363215 -15.298767 0.628681 3.253050 -27.980896 0.161530 1.380766 -17.579771 0.000000 0.000001 0.000003 9.533403 -0.000004 0.000000 1.306540 9.182383 -23.373276 1.199519 4.211856 -40.471941 0.375989 2.030088 -20.088418 -0.000001 0.000001 0.000001 9.104499 -0.042994 -1.865102 3.133254 11.621759 -33.905380 2.134046 4.039485 -48.249358 0.842726 2.253013 -26.852300 0.000000 0.000001 -0.000000 8.077781 -0.486885 -3.806300 5.481034 16.531942 -44.557825 1.666914 4.154940 -53.030395 0.771201 3.257181 -27.992075 0.000000 -0.000001 0.000000 -8.207797 -6.751710 -1.599543 0.290006 -3.369777 11.164352 17.248990 -4.635520 2.819490 -14.086259 0.816103 -6.862541 1.154140 -0.000003 -0.000001 -0.000000 -0.000001 0.000000 8.207801 -6.751702 -1.599543 -18.302528 12.227269 17.227375 27.505611 8.006180 3.180901 -5.181984 4.962648 -10.473376 -0.637835 0.000021 -0.000003 0.000000 0.000001 0.000000 
